<svg xmlns="http://www.w3.org/2000/svg" width="14" height="20.001" viewBox="0 0 14 20.001">
  <g id="map-placeholder" transform="translate(-2198 -7610)">
    <g id="map-placeholder-2" data-name="map-placeholder" transform="translate(2198 7610)">
      <path id="Forma_1" data-name="Forma 1" d="M7,0A6.957,6.957,0,0,0,0,7c0,5.2,7,13,7,13s7-7.8,7-13A6.957,6.957,0,0,0,7,0ZM7,9.5A2.5,2.5,0,1,1,9.5,7,2.476,2.476,0,0,1,7,9.5Z"/>
    </g>
    <path id="Color_Overlay" data-name="Color Overlay" d="M2198,7617a7,7,0,1,1,14,0c0,5.2-7,13-7,13S2198,7622.2,2198,7617Zm4.5,0a2.5,2.5,0,1,0,2.5-2.5A2.474,2.474,0,0,0,2202.5,7617Z" fill="#ffc000"/>
  </g>
</svg>
