<svg xmlns="http://www.w3.org/2000/svg" width="20" height="20" viewBox="0 0 20 20">
  <g id="phone-call-button" transform="translate(-2196 -7798)">
    <g id="phone-call-button-2" data-name="phone-call-button" transform="translate(2196 7798)">
      <path id="Forma_1" data-name="Forma 1" d="M4,8.667A17.3,17.3,0,0,0,11.333,16l2.444-2.444a.885.885,0,0,1,1.111-.222,11.622,11.622,0,0,0,4,.667A1.05,1.05,0,0,1,20,15.111v3.778A1.05,1.05,0,0,1,18.889,20,18.873,18.873,0,0,1,0,1.111,1.05,1.05,0,0,1,1.111,0H5A1.05,1.05,0,0,1,6.111,1.111a12.583,12.583,0,0,0,.667,4,1.368,1.368,0,0,1-.222,1.111Z"/>
    </g>
    <path id="Color_Overlay" data-name="Color Overlay" d="M2196,7799.111a1.049,1.049,0,0,1,1.11-1.111H2201a1.05,1.05,0,0,1,1.113,1.111,12.623,12.623,0,0,0,.665,4,1.369,1.369,0,0,1-.222,1.111l-2.555,2.444a17.3,17.3,0,0,0,7.332,7.333l2.445-2.443a.885.885,0,0,1,1.11-.224,11.608,11.608,0,0,0,4,.667,1.048,1.048,0,0,1,1.111,1.11v3.779a1.048,1.048,0,0,1-1.111,1.11A18.873,18.873,0,0,1,2196,7799.111Z" fill="#2c3442"/>
    <path id="Color_Overlay-2" data-name="Color Overlay" d="M2196,7799.111a1.049,1.049,0,0,1,1.11-1.111H2201a1.05,1.05,0,0,1,1.113,1.111,12.623,12.623,0,0,0,.665,4,1.369,1.369,0,0,1-.222,1.111l-2.555,2.444a17.3,17.3,0,0,0,7.332,7.333l2.445-2.443a.885.885,0,0,1,1.11-.224,11.608,11.608,0,0,0,4,.667,1.048,1.048,0,0,1,1.111,1.11v3.779a1.048,1.048,0,0,1-1.111,1.11A18.873,18.873,0,0,1,2196,7799.111Z" fill="#ffc000"/>
  </g>
</svg>
