<svg xmlns="http://www.w3.org/2000/svg" width="20.008" height="16" viewBox="0 0 20.008 16">
  <g id="paint-board-and-brush" transform="translate(-1408.997 -1584)">
    <g id="paint-board-and-brush-2" data-name="paint-board-and-brush" transform="translate(1409 1584)">
      <path id="Forma_1" data-name="Forma 1" d="M19.6.507a.28.28,0,0,0-.485-.058,2.457,2.457,0,0,1-1.346.834,5.063,5.063,0,0,0-1.356.647,1.7,1.7,0,0,0-.836,1.759l-.017.021a9.023,9.023,0,0,0-.919-1.117A8.648,8.648,0,0,0,8.792.005C8.7,0,8.6,0,8.5,0A8.537,8.537,0,0,0,2.073,2.958a8.241,8.241,0,0,0-1.98,6.68c.031.2.07.4.115.6a7.455,7.455,0,0,0,4.218,5.449A4.043,4.043,0,0,0,5.961,16a3.425,3.425,0,0,0,3.017-1.821,3.9,3.9,0,0,0,.48-1.353,3.22,3.22,0,0,0-.014-.8,2.973,2.973,0,0,1-.012-.78,1.056,1.056,0,0,1,1.114-.938,1.739,1.739,0,0,1,.521.083c-.2.37-.391.724-.553,1.051a10.59,10.59,0,0,0-.706,1.709c-.077.271-.28.991.216,1.331a.751.751,0,0,0,.566.108c.188-.034.758-.139,2.38-1.958.435-.488.9-1.053,1.394-1.679a3.743,3.743,0,0,0,2.5-2.651,3.852,3.852,0,0,0,.08-.95c.471-.718.884-1.387,1.3-2.107l.024-.044a2.281,2.281,0,0,0,1.428-1.273A4.3,4.3,0,0,0,19.6.507ZM12.8,4.98a1.2,1.2,0,0,1-1.634.366,1.161,1.161,0,0,1-.524-.729,1.146,1.146,0,0,1,.153-.881,1.2,1.2,0,0,1,1.634-.366,1.161,1.161,0,0,1,.524.729A1.146,1.146,0,0,1,12.8,4.98ZM14.336,7.1c.6-.87,1.233-1.734,1.834-2.5a3.247,3.247,0,0,0,.325.252,2.509,2.509,0,0,0,.61.308c-.508.856-1.054,1.7-1.716,2.664a43.906,43.906,0,0,1-3.182,4.127,12.182,12.182,0,0,1-1.374,1.362,12.127,12.127,0,0,1,.782-1.769A43.839,43.839,0,0,1,14.336,7.1ZM3.819,7.088a1.194,1.194,0,0,1-.63-.18,1.16,1.16,0,0,1-.524-.729A1.146,1.146,0,0,1,2.817,5.3a1.2,1.2,0,0,1,1.634-.366,1.159,1.159,0,0,1,.371,1.61A1.184,1.184,0,0,1,3.819,7.088ZM2.577,9.66a1.2,1.2,0,0,1,1.634-.366,1.161,1.161,0,0,1,.524.729,1.145,1.145,0,0,1-.153.881,1.2,1.2,0,0,1-1.634.366,1.16,1.16,0,0,1-.524-.729A1.147,1.147,0,0,1,2.577,9.66ZM6.371,2.725a1.2,1.2,0,0,1,1.634-.366,1.159,1.159,0,0,1,.371,1.61,1.2,1.2,0,0,1-1.634.366,1.16,1.16,0,0,1-.524-.729A1.146,1.146,0,0,1,6.371,2.725Z"/>
    </g>
    <path id="Color_Overlay" data-name="Color Overlay" d="M1413.426,1599.683a7.457,7.457,0,0,1-4.218-5.45c-.045-.2-.084-.4-.115-.6a8.243,8.243,0,0,1,1.98-6.68A8.54,8.54,0,0,1,1417.5,1584c.1,0,.2,0,.292.005a8.652,8.652,0,0,1,5.851,2.587,9.067,9.067,0,0,1,.919,1.118l.016-.022a1.7,1.7,0,0,1,.836-1.759,5.046,5.046,0,0,1,1.357-.648,2.457,2.457,0,0,0,1.346-.834.282.282,0,0,1,.26-.113.276.276,0,0,1,.224.171,4.293,4.293,0,0,1,.093,3.419,2.282,2.282,0,0,1-1.428,1.273l-.023.044c-.416.719-.83,1.389-1.3,2.107a3.851,3.851,0,0,1-.08.949,3.744,3.744,0,0,1-2.5,2.651c-.49.626-.959,1.192-1.395,1.679-1.621,1.819-2.192,1.923-2.38,1.958a.747.747,0,0,1-.565-.107c-.5-.34-.293-1.06-.217-1.331a10.677,10.677,0,0,1,.707-1.709c.163-.328.349-.681.553-1.051a1.738,1.738,0,0,0-.521-.083,1.057,1.057,0,0,0-1.114.938,2.985,2.985,0,0,0,.012.78,3.217,3.217,0,0,1,.014.8,3.908,3.908,0,0,1-.48,1.354,3.427,3.427,0,0,1-3.018,1.821A4.046,4.046,0,0,1,1413.426,1599.683Zm9.911-8.588a44,44,0,0,0-2.722,4.443,12.19,12.19,0,0,0-.781,1.768,12.155,12.155,0,0,0,1.374-1.362,44.042,44.042,0,0,0,3.182-4.127c.661-.96,1.208-1.808,1.715-2.664a2.5,2.5,0,0,1-.609-.309,3.3,3.3,0,0,1-.325-.252C1424.569,1589.361,1423.935,1590.226,1423.337,1591.1Zm-11.76,2.564a1.146,1.146,0,0,0-.152.881,1.159,1.159,0,0,0,.524.729,1.195,1.195,0,0,0,1.634-.365,1.144,1.144,0,0,0,.153-.881,1.157,1.157,0,0,0-.524-.729,1.2,1.2,0,0,0-1.634.365Zm.241-4.361a1.144,1.144,0,0,0-.153.881,1.16,1.16,0,0,0,.524.729,1.2,1.2,0,0,0,1.634-.365,1.158,1.158,0,0,0-.372-1.61,1.195,1.195,0,0,0-1.634.365Zm7.976-1.562a1.144,1.144,0,0,0-.153.881,1.162,1.162,0,0,0,.524.729,1.2,1.2,0,0,0,1.634-.365,1.148,1.148,0,0,0,.153-.881,1.162,1.162,0,0,0-.525-.73,1.2,1.2,0,0,0-.63-.179A1.181,1.181,0,0,0,1419.793,1587.736Zm-4.422-1.012a1.144,1.144,0,0,0-.153.881,1.16,1.16,0,0,0,.524.729,1.2,1.2,0,0,0,1.634-.365,1.158,1.158,0,0,0-.372-1.61,1.195,1.195,0,0,0-1.633.365Z" fill="#333"/>
  </g>
</svg>
